<svg width="53" height="51" viewBox="0 0 53 51" fill="none" xmlns="http://www.w3.org/2000/svg">
<g filter="url(#filter0_i_327_75)">
<path d="M38.9068 34.857L39.5922 34.059C42.9928 30.0998 40.2294 22.1262 33.4337 16.2892C26.638 10.4523 18.3387 8.92383 14.9381 12.883L14.2527 13.681C9.59 10.9028 6.13876 9.69848 5.18974 10.8034C3.42352 12.8597 10.4815 21.8019 20.9647 30.8063C31.448 39.8106 41.353 45.4381 43.1192 43.3818C44.0682 42.2769 42.3568 39.047 38.9068 34.857Z" fill="#E7E7E7"/>
</g>
<path d="M15.0914 12.7091L14.0165 13.9605C13.9807 14.0022 14.0143 14.0674 14.048 14.1325C14.5414 14.81 17.3873 18.4868 25.535 25.485C33.6827 32.4832 37.7468 34.7417 38.4911 35.1272C38.5605 35.1506 38.63 35.1741 38.6659 35.1323L39.7407 33.8809C39.7945 33.8183 39.6756 33.6437 39.503 33.5317C38.2925 32.8544 34.2664 30.4474 26.7891 24.025C19.3118 17.6026 16.3068 14.0067 15.4725 12.8914C15.3357 12.7377 15.1451 12.6465 15.0914 12.7091Z" fill="#7BC8FF"/>
<defs>
<filter id="filter0_i_327_75" x="4.91895" y="10.3962" width="39.4597" height="33.4093" filterUnits="userSpaceOnUse" color-interpolation-filters="sRGB">
<feFlood flood-opacity="0" result="BackgroundImageFix"/>
<feBlend mode="normal" in="SourceGraphic" in2="BackgroundImageFix" result="shape"/>
<feColorMatrix in="SourceAlpha" type="matrix" values="0 0 0 0 0 0 0 0 0 0 0 0 0 0 0 0 0 0 127 0" result="hardAlpha"/>
<feOffset dx="1"/>
<feGaussianBlur stdDeviation="4"/>
<feComposite in2="hardAlpha" operator="arithmetic" k2="-1" k3="1"/>
<feColorMatrix type="matrix" values="0 0 0 0 0 0 0 0 0 0 0 0 0 0 0 0 0 0 0.6 0"/>
<feBlend mode="normal" in2="shape" result="effect1_innerShadow_327_75"/>
</filter>
</defs>
</svg>
