<svg width="52" height="50" viewBox="0 0 52 50" fill="none" xmlns="http://www.w3.org/2000/svg">
<path d="M39.1116 34.7245L39.6998 34.0397C42.6181 30.6417 39.4619 23.1251 32.666 17.2884C25.87 11.4517 17.9631 9.46674 15.0447 12.8647L14.4565 13.5496C9.87971 10.6715 6.55175 9.32371 5.73733 10.272C4.2216 12.0368 11.4817 20.7438 21.9654 29.7477C32.4491 38.7515 42.1524 44.6137 43.6682 42.8488C44.4826 41.9006 42.6477 38.8143 39.1116 34.7245Z" fill="#FFE1AB"/>
<path d="M15.1766 12.7157L14.2541 13.7898C14.2234 13.8256 14.2596 13.8878 14.2958 13.9499C14.807 14.6067 17.7394 18.1828 25.8874 25.1807C34.0354 32.1786 38.0133 34.5374 38.7397 34.9436C38.8067 34.97 38.8736 34.9964 38.9044 34.9606L39.8268 33.8865C39.8729 33.8328 39.749 33.6642 39.5789 33.5492C38.3937 32.8424 34.4412 30.3498 26.9636 23.9277C19.486 17.5055 16.4098 13.9926 15.5475 12.9099C15.4081 12.7591 15.2227 12.662 15.1766 12.7157Z" fill="#7B755E"/>
</svg>
