<svg width="52" height="50" viewBox="0 0 52 50" fill="none" xmlns="http://www.w3.org/2000/svg">
<g filter="url(#filter0_i_327_88)">
<path d="M39.1108 34.7256L39.699 34.0408C42.6175 30.6429 39.4616 23.1262 32.6659 17.2892C25.8702 11.4523 17.9633 9.46692 15.0448 12.8648L14.4566 13.5496C9.87991 10.6713 6.55201 9.32341 5.73755 10.2716C4.22175 12.0364 11.4815 20.7437 21.9648 29.748C32.4481 38.7523 42.1512 44.6149 43.667 42.8501C44.4815 41.9019 42.6468 38.8155 39.1108 34.7256Z" fill="#665193"/>
</g>
<path d="M15.1767 12.7158L14.2542 13.7898C14.2235 13.8256 14.2597 13.8877 14.2958 13.9499C14.807 14.6067 17.7393 18.183 25.887 25.1812C34.0347 32.1794 38.0125 34.5384 38.7389 34.9446C38.8058 34.971 38.8728 34.9974 38.9035 34.9616L39.826 33.8876C39.8721 33.8339 39.7482 33.6652 39.5781 33.5502C38.393 32.8434 34.4405 30.3506 26.9632 23.9282C19.4859 17.5058 16.4098 13.9927 15.5476 12.9099C15.4083 12.7591 15.2228 12.6621 15.1767 12.7158Z" fill="#FFC839"/>
<defs>
<filter id="filter0_i_327_88" x="5.53748" y="9.97083" width="38.3209" height="37.1928" filterUnits="userSpaceOnUse" color-interpolation-filters="sRGB">
<feFlood flood-opacity="0" result="BackgroundImageFix"/>
<feBlend mode="normal" in="SourceGraphic" in2="BackgroundImageFix" result="shape"/>
<feColorMatrix in="SourceAlpha" type="matrix" values="0 0 0 0 0 0 0 0 0 0 0 0 0 0 0 0 0 0 127 0" result="hardAlpha"/>
<feOffset dy="4"/>
<feGaussianBlur stdDeviation="2"/>
<feComposite in2="hardAlpha" operator="arithmetic" k2="-1" k3="1"/>
<feColorMatrix type="matrix" values="0 0 0 0 0 0 0 0 0 0 0 0 0 0 0 0 0 0 0.25 0"/>
<feBlend mode="normal" in2="shape" result="effect1_innerShadow_327_88"/>
</filter>
</defs>
</svg>
