<svg width="52" height="50" viewBox="0 0 52 50" fill="none" xmlns="http://www.w3.org/2000/svg">
<path d="M39.1108 34.7256L39.699 34.0408C42.6175 30.6429 39.4616 23.1262 32.6659 17.2892C25.8702 11.4523 17.9633 9.46692 15.0448 12.8648L14.4566 13.5496C9.87991 10.6713 6.55201 9.32341 5.73755 10.2716C4.22175 12.0364 11.4815 20.7437 21.9648 29.748C32.4481 38.7523 42.1512 44.6149 43.667 42.8501C44.4815 41.9019 42.6468 38.8155 39.1108 34.7256Z" fill="black"/>
<path d="M15.1768 12.7158L14.2543 13.7898C14.2236 13.8256 14.2598 13.8878 14.296 13.95C14.8072 14.6068 17.7394 18.183 25.8871 25.1812C34.0348 32.1794 38.0126 34.5384 38.739 34.9446C38.806 34.971 38.8729 34.9974 38.9037 34.9616L39.8261 33.8876C39.8723 33.8339 39.7483 33.6653 39.5782 33.5503C38.3931 32.8434 34.4407 30.3506 26.9634 23.9282C19.4861 17.5058 16.4099 13.9927 15.5477 12.9099C15.4084 12.7592 15.2229 12.6621 15.1768 12.7158Z" fill="#EF8EFF"/>
</svg>
