<svg width="50" height="50" viewBox="0 0 50 50" fill="none" xmlns="http://www.w3.org/2000/svg">
<g filter="url(#filter0_i_327_136)">
<path d="M40.5297 9.44292C36.3968 5.31 26.8644 1.51037 17.7987 10.5095C11.7993 16.4422 9.66616 23.9748 17.7987 32.1073C25.9312 40.1732 33.4638 38.0401 39.4632 32.1073C48.5289 23.0416 44.6627 13.5758 40.5297 9.44292" fill="#E8F7F8"/>
</g>
<path d="M24.1982 36.507L13.3993 25.7081C13.3993 25.7081 15.6657 30.9742 11.7994 34.9072C11.7994 34.9072 8.53309 38.1735 5.06677 41.1732C5.46673 41.9731 5.33341 42.0398 6.73327 43.5063C7.93315 44.7062 7.99981 44.5729 8.66641 44.9728C11.6661 41.4398 14.9991 38.1068 14.9991 38.1068C18.9321 34.2406 24.1982 36.507 24.1982 36.507" fill="black"/>
<path opacity="0.5" d="M8.73296 44.8395C10.9327 42.3064 13.3325 39.84 14.3991 38.7734L20.1985 32.5074L17.3988 29.7077L11.1327 35.5071C9.9995 36.5737 7.53308 38.9734 5 41.1732C5.39996 41.9731 5.26664 42.0398 6.6665 43.5063C7.86638 44.7062 7.93304 44.5729 8.59964 44.9728L8.73296 44.8395" fill="#11FF45"/>
<path d="M7.59973 44.3729C7.99969 44.7062 8.19967 44.7728 8.59963 44.9728C8.66629 44.9062 8.66629 44.9062 8.73295 44.9062C10.9327 42.3731 13.3325 39.9067 14.3991 38.8401L20.1985 32.5741L18.5986 33.5073L7.59973 44.3729Z" fill="#11FF45"/>
<path d="M24.1979 36.507L20.1983 32.5074L14.7988 38.3068C15.8654 37.2402 19.1317 34.7738 24.1979 36.507" fill="#039100"/>
<path d="M13.3991 25.7081L17.3987 29.7077L11.5992 35.1071C12.6658 33.9739 15.1322 30.7742 13.3991 25.7081" fill="#039100"/>
<defs>
<filter id="filter0_i_327_136" x="12.4694" y="5" width="32.5305" height="32.3869" filterUnits="userSpaceOnUse" color-interpolation-filters="sRGB">
<feFlood flood-opacity="0" result="BackgroundImageFix"/>
<feBlend mode="normal" in="SourceGraphic" in2="BackgroundImageFix" result="shape"/>
<feColorMatrix in="SourceAlpha" type="matrix" values="0 0 0 0 0 0 0 0 0 0 0 0 0 0 0 0 0 0 127 0" result="hardAlpha"/>
<feOffset dy="2"/>
<feComposite in2="hardAlpha" operator="arithmetic" k2="-1" k3="1"/>
<feColorMatrix type="matrix" values="0 0 0 0 0 0 0 0 0 0 0 0 0 0 0 0 0 0 0.25 0"/>
<feBlend mode="normal" in2="shape" result="effect1_innerShadow_327_136"/>
</filter>
</defs>
</svg>
