<svg width="50" height="50" viewBox="0 0 50 50" fill="none" xmlns="http://www.w3.org/2000/svg">
<path d="M37.8755 34.7256L38.4452 34.0408C41.2715 30.6429 38.2153 23.1262 31.6342 17.2892C25.0531 11.4523 17.396 9.46692 14.5697 12.8648L14 13.5496C9.56786 10.6713 6.34506 9.32341 5.55633 10.2716C4.0884 12.0364 11.1189 20.7437 21.2711 29.748C31.4233 38.7523 40.8199 44.6149 42.2879 42.8501C43.0766 41.9019 41.2998 38.8155 37.8755 34.7256Z" fill="#FF9797"/>
<path d="M14.6973 12.7158L13.804 13.7898C13.7742 13.8256 13.8092 13.8877 13.8443 13.9499C14.3393 14.6067 17.179 18.183 25.0694 25.1812C32.9597 32.1794 36.8119 34.5384 37.5154 34.9446C37.5802 34.971 37.645 34.9974 37.6748 34.9616L38.5682 33.8876C38.6128 33.8339 38.4928 33.6652 38.3281 33.5502C37.1804 32.8434 33.3528 30.3506 26.1116 23.9282C18.8705 17.5058 15.8915 13.9927 15.0565 12.9099C14.9216 12.7591 14.742 12.6621 14.6973 12.7158Z" fill="white"/>
</svg>
