<svg width="50" height="50" viewBox="0 0 50 50" fill="none" xmlns="http://www.w3.org/2000/svg">
<path d="M37.8758 34.7245L38.4454 34.0397C41.2715 30.6417 38.2151 23.1251 31.6339 17.2884C25.0527 11.4517 17.3955 9.46674 14.5694 12.8647L13.9998 13.5496C9.56758 10.6715 6.34477 9.32371 5.55608 10.272C4.08825 12.0368 11.119 20.7438 21.2714 29.7477C31.4238 38.7515 40.8206 44.6137 42.2884 42.8488C43.0771 41.9006 41.3002 38.8143 37.8758 34.7245Z" fill="#FFE1AB"/>
<path d="M14.6971 12.7157L13.8038 13.7898C13.774 13.8256 13.8091 13.8878 13.8441 13.9499C14.3392 14.6067 17.179 18.1828 25.0695 25.1807C32.96 32.1786 36.8122 34.5374 37.5157 34.9436C37.5805 34.97 37.6454 34.9964 37.6751 34.9606L38.5684 33.8865C38.6131 33.8328 38.493 33.6642 38.3283 33.5492C37.1806 32.8424 33.353 30.3498 26.1117 23.9277C18.8704 17.5055 15.8913 13.9926 15.0563 12.9099C14.9213 12.7591 14.7417 12.662 14.6971 12.7157Z" fill="#7B755E"/>
</svg>
