<svg width="50" height="50" viewBox="0 0 50 50" fill="none" xmlns="http://www.w3.org/2000/svg">
<path d="M37.8755 34.7256L38.4452 34.0408C41.2715 30.6429 38.2153 23.1262 31.6342 17.2892C25.0531 11.4523 17.396 9.46692 14.5697 12.8648L14 13.5496C9.56786 10.6713 6.34506 9.32341 5.55633 10.2716C4.0884 12.0364 11.1189 20.7437 21.2711 29.748C31.4233 38.7523 40.8199 44.6149 42.2879 42.8501C43.0766 41.9019 41.2998 38.8155 37.8755 34.7256Z" fill="black"/>
<path d="M14.6974 12.7158L13.8041 13.7898C13.7743 13.8256 13.8094 13.8878 13.8444 13.95C14.3395 14.6068 17.1791 18.183 25.0695 25.1812C32.9599 32.1794 36.812 34.5384 37.5155 34.9446C37.5803 34.971 37.6451 34.9974 37.6749 34.9616L38.5683 33.8876C38.6129 33.8339 38.4929 33.6653 38.3282 33.5503C37.1805 32.8434 33.3529 30.3506 26.1117 23.9282C18.8706 17.5058 15.8916 13.9927 15.0566 12.9099C14.9217 12.7592 14.7421 12.6621 14.6974 12.7158Z" fill="#EF8EFF"/>
</svg>
