<svg width="51" height="51" viewBox="0 0 51 51" fill="none" xmlns="http://www.w3.org/2000/svg">
<g filter="url(#filter0_i_328_2)">
<g filter="url(#filter1_i_328_2)">
<path d="M38.8256 35.7244L39.3946 35.0396C42.2175 31.6418 39.165 24.125 32.5918 18.2881C26.0187 12.4511 18.3707 10.4658 15.5478 13.8636L14.9789 14.5484C10.5521 11.6702 7.33314 10.3223 6.54535 11.2705C5.07919 13.0353 12.1012 21.7425 22.2412 30.7468C32.3811 39.7512 41.7665 45.6137 43.2327 43.8489C44.0205 42.9007 42.2458 39.8143 38.8256 35.7244Z" fill="black"/>
</g>
<g filter="url(#filter2_i_328_2)">
<path d="M36.3852 38.3283L35.8155 37.376C35.8402 36.8267 35.7432 36.1711 35.5448 35.5454C35.3464 34.9197 35.0617 34.3721 34.7501 34.0164C34.2271 33.422 33.7416 32.5397 33.3738 31.5152C33.3083 34.7333 34.198 36.2599 35.0043 37.608L34.9719 38.7074C34.3225 38.5992 33.5991 37.9779 32.9353 36.9582C32.2715 35.9386 31.7121 34.5895 31.3607 33.1604C31.3607 33.1604 30.4702 30.2992 31.0941 27.1035C31.0941 27.1035 31.7217 23.1893 30.4869 20.7506L30.6475 19.7746C31.52 20.6306 32.3624 21.9386 33.0642 23.5275C33.7661 25.1164 34.2948 26.9121 34.5812 28.6797C34.6297 28.3346 34.6365 27.938 34.6013 27.5117L35.0584 27.2887C35.1402 27.4389 37.1282 30.9385 37.451 34.2534C37.5168 35.2501 37.4538 36.1446 37.2677 36.856C37.0816 37.5674 36.7783 38.0733 36.3852 38.3283V38.3283ZM32.786 29.3191L33.408 29.712C33.5458 30.3298 33.7435 30.938 33.986 31.49C34.2284 32.042 34.5092 32.523 34.8067 32.8961C35.1561 33.2505 35.4917 33.7836 35.7695 34.4258C36.0473 35.0681 36.2546 35.7897 36.3643 36.4968C36.5415 36.2414 36.6706 35.8809 36.7437 35.437C36.8169 34.9931 36.8326 34.475 36.7899 33.9141C36.5419 32.2334 35.9939 30.5123 35.2618 29.1142C35.2669 29.5537 35.2023 29.9228 35.0758 30.176C34.9494 30.4293 34.7667 30.5556 34.5502 30.5394L34.1125 29.6809C34.0158 28.3473 33.7203 26.912 33.2629 25.5542C32.8055 24.1964 32.2065 22.9764 31.5407 22.0466C32.2228 24.9062 31.7225 27.8535 31.7231 28.0112C31.2066 30.6757 31.8683 32.8376 31.8934 32.9313C32.0931 33.7642 32.3844 34.5713 32.7373 35.269C33.0901 35.9668 33.4915 36.5297 33.8999 36.8996C33.0712 35.1126 32.4692 32.863 32.8027 29.3147L32.786 29.3191V29.3191Z" fill="#FFBC0F"/>
</g>
<path d="M15.6754 13.7145L14.7831 14.7885C14.7534 14.8243 14.7884 14.8865 14.8234 14.9487C15.3179 15.6055 18.1541 19.1817 26.035 26.18C33.9158 33.1782 37.7633 35.5372 38.466 35.9434C38.5307 35.9698 38.5955 35.9962 38.6252 35.9604L39.5175 34.8864C39.5621 34.8327 39.4422 34.664 39.2777 34.549C38.1314 33.8422 34.3084 31.3494 27.076 24.927C19.8435 18.5045 16.8682 14.9914 16.0342 13.9087C15.8994 13.7579 15.72 13.6608 15.6754 13.7145Z" fill="#7E0000"/>
</g>
<defs>
<filter id="filter0_i_328_2" x="6.35181" y="10.9697" width="37.066" height="33.1928" filterUnits="userSpaceOnUse" color-interpolation-filters="sRGB">
<feFlood flood-opacity="0" result="BackgroundImageFix"/>
<feBlend mode="normal" in="SourceGraphic" in2="BackgroundImageFix" result="shape"/>
<feColorMatrix in="SourceAlpha" type="matrix" values="0 0 0 0 0 0 0 0 0 0 0 0 0 0 0 0 0 0 127 0" result="hardAlpha"/>
<feOffset/>
<feGaussianBlur stdDeviation="1.5"/>
<feComposite in2="hardAlpha" operator="arithmetic" k2="-1" k3="1"/>
<feColorMatrix type="matrix" values="0 0 0 0 0.898039 0 0 0 0 0.701961 0 0 0 0 0 0 0 0 1 0"/>
<feBlend mode="normal" in2="shape" result="effect1_innerShadow_328_2"/>
</filter>
<filter id="filter1_i_328_2" x="6.35181" y="10.9697" width="37.066" height="37.1928" filterUnits="userSpaceOnUse" color-interpolation-filters="sRGB">
<feFlood flood-opacity="0" result="BackgroundImageFix"/>
<feBlend mode="normal" in="SourceGraphic" in2="BackgroundImageFix" result="shape"/>
<feColorMatrix in="SourceAlpha" type="matrix" values="0 0 0 0 0 0 0 0 0 0 0 0 0 0 0 0 0 0 127 0" result="hardAlpha"/>
<feOffset dy="4"/>
<feGaussianBlur stdDeviation="2"/>
<feComposite in2="hardAlpha" operator="arithmetic" k2="-1" k3="1"/>
<feColorMatrix type="matrix" values="0 0 0 0 0 0 0 0 0 0 0 0 0 0 0 0 0 0 0.25 0"/>
<feBlend mode="normal" in2="shape" result="effect1_innerShadow_328_2"/>
</filter>
<filter id="filter2_i_328_2" x="30.4869" y="18.7746" width="6.98938" height="19.9328" filterUnits="userSpaceOnUse" color-interpolation-filters="sRGB">
<feFlood flood-opacity="0" result="BackgroundImageFix"/>
<feBlend mode="normal" in="SourceGraphic" in2="BackgroundImageFix" result="shape"/>
<feColorMatrix in="SourceAlpha" type="matrix" values="0 0 0 0 0 0 0 0 0 0 0 0 0 0 0 0 0 0 127 0" result="hardAlpha"/>
<feOffset dy="-1"/>
<feGaussianBlur stdDeviation="2"/>
<feComposite in2="hardAlpha" operator="arithmetic" k2="-1" k3="1"/>
<feColorMatrix type="matrix" values="0 0 0 0 0 0 0 0 0 0 0 0 0 0 0 0 0 0 0.6 0"/>
<feBlend mode="normal" in2="shape" result="effect1_innerShadow_328_2"/>
</filter>
</defs>
</svg>
