<svg width="50" height="50" viewBox="0 0 50 50" fill="none" xmlns="http://www.w3.org/2000/svg">
<path d="M40.5299 9.44294C36.3969 5.31 26.8645 1.51036 17.7987 10.5095C11.7993 16.4423 9.66615 23.9749 17.7987 32.1074C25.9313 40.1733 33.4639 38.0402 39.4633 32.1074C48.5291 23.0416 44.6628 13.5759 40.5299 9.44294" fill="#D6646F"/>
<path d="M24.1982 36.5071L13.3992 25.7081C13.3992 25.7081 15.6656 30.9743 11.7993 34.9073C11.7993 34.9073 8.53299 38.1736 5.06665 41.1733C5.46661 41.9732 5.33329 42.0399 6.73316 43.5064C7.93304 44.7063 7.9997 44.573 8.66631 44.973C11.666 41.44 14.999 38.1069 14.999 38.1069C18.932 34.2406 24.1982 36.5071 24.1982 36.5071" fill="#FED0AC"/>
<path opacity="0.5" d="M8.73298 44.8397C10.9328 42.3066 13.3325 39.8401 14.3991 38.7736L20.1985 32.5075L17.3988 29.7078L11.1327 35.5072C9.99952 36.5738 7.53309 38.9735 5 41.1733C5.39996 41.9733 5.26664 42.0399 6.66651 43.5064C7.86639 44.7063 7.93305 44.573 8.59966 44.973L8.73298 44.8397" fill="#D3976E"/>
<path d="M7.59973 44.3731C7.99969 44.7064 8.19967 44.773 8.59964 44.973C8.6663 44.9063 8.6663 44.9063 8.73296 44.9063C10.9327 42.3733 13.3325 39.9068 14.3991 38.8403L20.1985 32.5742L18.5987 33.5074L7.59973 44.3731Z" fill="#D3976E"/>
<path d="M24.1979 36.5071L20.1983 32.5074L14.7988 38.3069C15.8654 37.2403 19.1317 34.7739 24.1979 36.5071" fill="#3E4347"/>
<path d="M13.3992 25.7081L17.3988 29.7077L11.5994 35.1072C12.6659 33.974 15.1324 30.7743 13.3992 25.7081" fill="#3E4347"/>
</svg>
