<svg width="50" height="50" viewBox="0 0 50 50" fill="none" xmlns="http://www.w3.org/2000/svg">
<mask id="mask0_327_133" style="mask-type:alpha" maskUnits="userSpaceOnUse" x="12" y="5" width="33" height="33">
<path d="M40.5297 9.44292C36.3968 5.31 26.8644 1.51037 17.7987 10.5095C11.7993 16.4422 9.66616 23.9748 17.7987 32.1073C25.9312 40.1732 33.4638 38.0401 39.4632 32.1073C48.5289 23.0416 44.6627 13.5758 40.5297 9.44292" fill="#E8F7F8"/>
</mask>
<g mask="url(#mask0_327_133)">
<path d="M40.5297 9.44292C36.3968 5.31 26.8644 1.51037 17.7987 10.5095C11.7993 16.4422 9.66616 23.9748 17.7987 32.1073C25.9312 40.1732 33.4638 38.0401 39.4632 32.1073C48.5289 23.0416 44.6627 13.5758 40.5297 9.44292" fill="black"/>
<g filter="url(#filter0_i_327_133)">
<path d="M37.9498 40.9153L36.4582 38.6101C36.5707 37.2517 36.357 35.6406 35.8613 34.1117C35.3657 32.5828 34.6263 31.2537 33.7968 30.4007C32.4049 28.9754 31.1396 26.8363 30.2097 24.3363C29.7682 32.2882 32.0945 35.9856 34.2055 39.2489L34.0268 41.9665C32.2473 41.752 30.3055 40.2766 28.5602 37.8127C26.8149 35.3488 25.3841 32.063 24.5322 28.5624C24.5322 28.5624 22.3123 21.5697 24.2899 13.6277C24.2899 13.6277 26.3362 3.91106 23.1336 -2.01051L23.6551 -4.43354C25.9885 -2.39073 28.202 0.770781 30.0058 4.63723C31.8097 8.50367 33.1199 12.8949 33.765 17.2363C33.9266 16.3802 33.9776 15.4003 33.9152 14.3507L35.1922 13.7626C35.4052 14.1271 40.596 22.6072 41.2158 30.7664C41.316 33.2224 41.0698 35.4361 40.4996 37.2079C39.9295 38.9797 39.0531 40.2538 37.9498 40.9153V40.9153ZM28.7695 18.9613L30.4504 19.8808C30.7797 21.3951 31.2748 22.881 31.8977 24.2243C32.5206 25.5676 33.2547 26.7326 34.0437 27.6298C34.9773 28.4766 35.858 29.7656 36.571 31.3289C37.284 32.8923 37.7963 34.6574 38.041 36.3945C38.5497 35.7495 38.9344 34.8488 39.1719 33.7467C39.4094 32.6446 39.4947 31.364 39.4228 29.9822C38.876 25.8524 37.5067 21.6468 35.6042 18.254C35.5826 19.3389 35.3746 20.2556 35.0058 20.8911C34.637 21.5267 34.1236 21.8535 33.5287 21.8311L32.3931 19.7467C32.2351 16.4616 31.5378 12.9413 30.3884 9.62567C29.239 6.31006 27.6884 3.34613 25.9303 1.10418C27.5767 8.11015 25.9596 15.4285 25.9486 15.8179C24.3097 22.4396 25.9565 27.7242 26.018 27.9536C26.5003 29.9939 27.2371 31.9633 28.1521 33.6575C29.067 35.3518 30.1268 36.7093 31.2216 37.5894C29.0845 33.2442 27.6091 27.738 28.8156 18.9489L28.7695 18.9613V18.9613Z" fill="#FFBC0F"/>
</g>
</g>
<path d="M24.1982 36.507L13.3993 25.7081C13.3993 25.7081 15.6657 30.9742 11.7994 34.9072C11.7994 34.9072 8.53309 38.1735 5.06677 41.1732C5.46673 41.9731 5.33341 42.0398 6.73327 43.5063C7.93315 44.7062 7.99981 44.5729 8.66641 44.9728C11.6661 41.4398 14.9991 38.1068 14.9991 38.1068C18.9321 34.2406 24.1982 36.507 24.1982 36.507" fill="black"/>
<path opacity="0.5" d="M8.73296 44.8395C10.9327 42.3064 13.3325 39.84 14.3991 38.7734L20.1985 32.5074L17.3988 29.7077L11.1327 35.5071C9.9995 36.5737 7.53308 38.9734 5 41.1732C5.39996 41.9731 5.26664 42.0398 6.6665 43.5063C7.86638 44.7062 7.93304 44.5729 8.59964 44.9728L8.73296 44.8395" fill="#FF0606"/>
<path d="M7.59973 44.3729C7.99969 44.7062 8.19967 44.7729 8.59963 44.9729C8.66629 44.9062 8.66629 44.9062 8.73295 44.9062C10.9327 42.3731 13.3325 39.9067 14.3991 38.8401L20.1985 32.5741L18.5986 33.5073L7.59973 44.3729Z" fill="#FF0606"/>
<path d="M24.1979 36.507L20.1983 32.5074L14.7988 38.3068C15.8654 37.2402 19.1317 34.7738 24.1979 36.507" fill="#E6B300"/>
<path d="M13.3991 25.7081L17.3987 29.7077L11.5992 35.1071C12.6658 33.9739 15.1322 30.7742 13.3991 25.7081" fill="#E6B300"/>
<defs>
<filter id="filter0_i_327_133" x="23.1335" y="-8.43353" width="18.104" height="50.4" filterUnits="userSpaceOnUse" color-interpolation-filters="sRGB">
<feFlood flood-opacity="0" result="BackgroundImageFix"/>
<feBlend mode="normal" in="SourceGraphic" in2="BackgroundImageFix" result="shape"/>
<feColorMatrix in="SourceAlpha" type="matrix" values="0 0 0 0 0 0 0 0 0 0 0 0 0 0 0 0 0 0 127 0" result="hardAlpha"/>
<feOffset dy="-7"/>
<feGaussianBlur stdDeviation="2"/>
<feComposite in2="hardAlpha" operator="arithmetic" k2="-1" k3="1"/>
<feColorMatrix type="matrix" values="0 0 0 0 0 0 0 0 0 0 0 0 0 0 0 0 0 0 0.6 0"/>
<feBlend mode="normal" in2="shape" result="effect1_innerShadow_327_133"/>
</filter>
</defs>
</svg>
